<?xml version="1.0" encoding="UTF-8"?>
<svg version="1.1" xmlns="http://www.w3.org/2000/svg" width="100" height="100">
<path d="M0 0 C33 0 66 0 100 0 C100 33 100 66 100 100 C67 100 34 100 0 100 C0 67 0 34 0 0 Z " fill="#010101" transform="translate(0,0)"/>
<path d="M0 0 C3.96 0 7.92 0 12 0 C14.86560931 6.01777955 16.75319887 11.45429409 18 18 C14.7 18.66 11.4 19.32 8 20 C7.34 18.35 6.68 16.7 6 15 C5.01 18.3 4.02 21.6 3 25 C4.134375 24.38125 5.26875 23.7625 6.4375 23.125 C14.03842301 18.97904199 22.53178294 18.68029503 31 18.4375 C32.87513736 18.37787114 34.75015483 18.31429425 36.625 18.24609375 C37.85089844 18.21020142 37.85089844 18.21020142 39.1015625 18.17358398 C41.01005681 18.20320435 41.01005681 18.20320435 42 17 C42.16666667 14.5 42.16666667 14.5 42 12 C40.19570071 10.19570071 37.18138255 10.91316071 34.75 10.875 C28.60695652 10.47715196 28.60695652 10.47715196 26.02734375 8.44921875 C24.33327423 6.06369228 23 3.9909556 23 1 C26.35349327 0.82423567 29.70578979 0.71867563 33.0625 0.625 C34.47692383 0.54958984 34.47692383 0.54958984 35.91992188 0.47265625 C40.97245004 0.36702848 44.16463105 0.57189462 48.12109375 3.8984375 C51.51512809 7.23518642 52.20618526 9.49721585 52.375 14.25 C52.35435488 18.17773502 52.13604102 20.60778204 49.625 23.6875 C47 26 47 26 45 26 C45.6496875 26.98742187 46.299375 27.97484375 46.96875 28.9921875 C47.81273833 30.28630293 48.65647535 31.58058229 49.5 32.875 C50.14388672 33.85146484 50.14388672 33.85146484 50.80078125 34.84765625 C54 39.7734375 54 39.7734375 54 42 C50.11312044 42.75910125 46.8476707 43.04983488 43 42 C40.5353409 39.07104773 38.98907567 36.17031711 37.33984375 32.72265625 C36.28780037 29.89179432 36.28780037 29.89179432 34 29 C31.9625237 28.77141886 29.91959697 28.58975722 27.875 28.4375 C26.23144531 28.31181641 26.23144531 28.31181641 24.5546875 28.18359375 C23.29011719 28.09271484 23.29011719 28.09271484 22 28 C22.28875 28.75925781 22.5775 29.51851562 22.875 30.30078125 C23.24625 31.29464844 23.6175 32.28851563 24 33.3125 C24.37125 34.29863281 24.7425 35.28476563 25.125 36.30078125 C26 39 26 39 26 42 C24.37581255 42.08090971 22.75048255 42.13914995 21.125 42.1875 C20.22007813 42.22230469 19.31515625 42.25710937 18.3828125 42.29296875 C17.20332031 42.14794922 17.20332031 42.14794922 16 42 C13.81024227 38.71536341 13.00193437 35.79303725 12 32 C6.64004891 32.33499694 2.88089666 35.55602548 -1 39 C-1.66 39.99 -2.32 40.98 -3 42 C-5.87448676 42.32370346 -8.61377768 42.18789148 -11.50146484 42.0871582 C-12.73823975 42.04401489 -12.73823975 42.04401489 -14 42 C-11.69427537 32.71665178 -8.55093541 23.79892464 -5.3125 14.8125 C-4.79584618 13.36927581 -4.27956755 11.92591725 -3.76367188 10.48242188 C-2.51342785 6.98672451 -1.2581456 3.49286247 0 0 Z " fill="#E6E6E6" transform="translate(30,29)"/>
<path d="M0 0 C6.27 0 12.54 0 19 0 C19 0.33 19 0.66 19 1 C13.06 1 7.12 1 1 1 C2.89534656 5.47064933 2.89534656 5.47064933 6 9 C9.45369415 9.74801544 12.60691314 9.87518253 16.13671875 9.8671875 C19 10 19 10 21 12 C21.25 14.5 21.25 14.5 21 17 C18.56552912 19.43447088 17.86939999 19.26682203 14.52734375 19.34375 C13.62693359 19.37339844 12.72652344 19.40304688 11.79882812 19.43359375 C10.85458984 19.45550781 9.91035156 19.47742188 8.9375 19.5 C0.17238082 19.7094266 -8.03599517 20.30285484 -16.0625 24.125 C-16.81660156 24.47820313 -17.57070313 24.83140625 -18.34765625 25.1953125 C-18.89292969 25.46085937 -19.43820313 25.72640625 -20 26 C-18.25740319 16.40546697 -18.25740319 16.40546697 -15 13 C-14.67 15.31 -14.34 17.62 -14 20 C-13.113125 19.67 -12.22625 19.34 -11.3125 19 C-8.29076653 18.08777857 -6.11626294 17.81669042 -3 18 C-2.67 17.01 -2.34 16.02 -2 15 C-2 15.66 -2 16.32 -2 17 C4.6 17 11.2 17 18 17 C18 15.35 18 13.7 18 12 C17.19175781 12.06960937 16.38351563 12.13921875 15.55078125 12.2109375 C6.97416423 12.64545851 6.97416423 12.64545851 4.08984375 10.734375 C2.30261683 8.58761846 1 6.86018641 1 4 C0.34 4 -0.32 4 -1 4 C-0.67 2.68 -0.34 1.36 0 0 Z " fill="#080808" transform="translate(52,29)"/>
<path d="M0 0 C6.27 0 12.54 0 19 0 C19 0.33 19 0.66 19 1 C13.06 1 7.12 1 1 1 C2.89382055 5.47221366 2.89382055 5.47221366 6 9 C9.48627292 9.74675369 12.67289076 9.87517289 16.234375 9.8671875 C17.14703125 9.91101562 18.0596875 9.95484375 19 10 C19.33 10.66 19.66 11.32 20 12 C7.47710309 12.9150696 7.47710309 12.9150696 3.95703125 10.734375 C2.18659185 8.59531039 1 6.83158856 1 4 C0.34 4 -0.32 4 -1 4 C-0.67 2.68 -0.34 1.36 0 0 Z " fill="#333333" transform="translate(52,29)"/>
<path d="M0 0 C0.99 0 1.98 0 3 0 C3.042721 1.66611905 3.04063832 3.33382885 3 5 C2 6 2 6 -0.22485352 6.11352539 C-1.18319092 6.10828857 -2.14152832 6.10305176 -3.12890625 6.09765625 C-4.68061523 6.09282227 -4.68061523 6.09282227 -6.26367188 6.08789062 C-7.35228516 6.07951172 -8.44089844 6.07113281 -9.5625 6.0625 C-11.2012207 6.05573242 -11.2012207 6.05573242 -12.87304688 6.04882812 C-15.58208495 6.03699826 -18.29101599 6.02051543 -21 6 C-20.67 5.01 -20.34 4.02 -20 3 C-20 3.66 -20 4.32 -20 5 C-13.4 5 -6.8 5 0 5 C0 3.35 0 1.7 0 0 Z " fill="#222222" transform="translate(70,41)"/>
<path d="M0 0 C0.33 0 0.66 0 1 0 C0.938125 1.093125 0.87625 2.18625 0.8125 3.3125 C0.60077072 7.27105698 0.60077072 7.27105698 4 10 C1.36 10.99 -1.28 11.98 -4 13 C-3.71517632 11.58194169 -3.42181856 10.16559621 -3.125 8.75 C-2.96257813 7.96109375 -2.80015625 7.1721875 -2.6328125 6.359375 C-2.00849925 4.03168856 -1.15161458 2.10968048 0 0 Z " fill="#222222" transform="translate(36,42)"/>
<path d="M0 0 C3.3 0 6.6 0 10 0 C10 0.33 10 0.66 10 1 C7.69 1 5.38 1 3 1 C3.350625 1.7425 3.70125 2.485 4.0625 3.25 C5.04509293 6.1322726 5.0326802 7.21176345 4 10 C1.81024227 6.71536341 1.00193437 3.79303725 0 0 Z " fill="#191919" transform="translate(52,58)"/>
<path d="M0 0 C-1.11666174 3.34998521 -1.74694925 3.79340222 -4.5625 5.6875 C-5.20316406 6.12449219 -5.84382813 6.56148438 -6.50390625 7.01171875 C-6.99761719 7.33785156 -7.49132812 7.66398437 -8 8 C-8 7.01 -8 6.02 -8 5 C-2.65116279 0 -2.65116279 0 0 0 Z " fill="#222222" transform="translate(37,62)"/>
<path d="M0 0 C1.32 0.33 2.64 0.66 4 1 C4.625 2.8125 4.625 2.8125 5 5 C4.01 6.485 4.01 6.485 3 8 C2.01 5.36 1.02 2.72 0 0 Z " fill="#212121" transform="translate(39,60)"/>
</svg>
